<svg t="1589210071533" class="icon" viewBox="0 0 1024 1024" version="1.1" xmlns="http://www.w3.org/2000/svg" p-id="2928" width="200" height="200"><path d="M469.333333 614.997333l-158.165333-158.165333a42.666667 42.666667 0 0 1 60.330667-60.330667l170.666666 170.666667A42.666667 42.666667 0 0 1 554.666667 597.333333v213.333334a42.666667 42.666667 0 0 1-42.666667 42.666666H192.682667a42.666667 42.666667 0 0 1-35.456-18.944A424.832 424.832 0 0 1 85.333333 597.333333C85.333333 361.685333 276.352 170.666667 512 170.666667s426.666667 191.018667 426.666667 426.666666a424.832 424.832 0 0 1-71.893334 237.056 42.666667 42.666667 0 0 1-35.413333 18.944H682.666667a42.666667 42.666667 0 0 1 0-85.333333h125.013333a341.333333 341.333333 0 1 0-591.36 0H469.333333v-153.002667z m200.832-115.498666a42.666667 42.666667 0 0 1-60.330666-60.330667l42.666666-42.666667a42.666667 42.666667 0 0 1 60.330667 60.330667l-42.666667 42.666667zM277.333333 640a42.666667 42.666667 0 0 1 0-85.333333h42.666667a42.666667 42.666667 0 0 1 0 85.333333h-42.666667z m426.666667 0a42.666667 42.666667 0 0 1 0-85.333333h42.666667a42.666667 42.666667 0 0 1 0 85.333333h-42.666667zM469.333333 341.333333a42.666667 42.666667 0 0 1 85.333334 0v42.666667a42.666667 42.666667 0 0 1-85.333334 0V341.333333z" p-id="2929"></path></svg>